<?xml version="1.0" standalone="no"?>
<!DOCTYPE svg PUBLIC "-//W3C//DTD SVG 20010904//EN"
 "http://www.w3.org/TR/2001/REC-SVG-20010904/DTD/svg10.dtd">
<svg version="1.0" xmlns="http://www.w3.org/2000/svg"
 width="700.000000pt" height="700.000000pt" viewBox="0 0 700.000000 700.000000"
 preserveAspectRatio="xMidYMid meet">
<metadata>
Created by potrace 1.11, written by Peter Selinger 2001-2013
</metadata>
<g transform="translate(0.000000,700.000000) scale(0.100000,-0.100000)"
fill="#000000" stroke="none">
<path d="M1112 6208 c33 -53 653 -1132 653 -1137 0 -3 -150 -8 -333 -11 l-333
-5 1238 -2142 c681 -1179 1241 -2139 1244 -2135 9 9 2460 4252 2466 4269 4 10
-61 13 -326 13 -210 0 -331 4 -331 10 0 5 149 267 330 581 182 314 330 573
330 575 0 2 -1114 4 -2476 4 l-2476 0 14 -22z"/>
</g>
</svg>
